<svg width="324" height="324" viewBox="0 0 324 324" fill="none" xmlns="http://www.w3.org/2000/svg">
<path d="M204.295 28.6641L205.176 29.1201L206.155 29.2686L253.249 36.4053L274.591 78.9893L275.035 79.875L275.74 80.5713L309.645 114.027L301.88 161.021L301.719 162L301.88 162.979L309.645 209.972L275.74 243.429L275.035 244.125L274.591 245.011L253.249 287.594L206.155 294.731L205.176 294.88L204.295 295.336L162 317.242L119.705 295.336L118.824 294.88L117.845 294.731L70.75 287.594L49.4092 245.011L48.9648 244.125L48.2598 243.429L14.3545 209.972L22.1201 162.979L22.2812 162L22.1201 161.021L14.3545 114.027L48.2598 80.5713L48.9648 79.875L49.4092 78.9893L70.75 36.4053L117.845 29.2686L118.824 29.1201L119.705 28.6641L162 6.75684L204.295 28.6641Z" fill="#97D1C1" stroke="#67ABB4" stroke-width="12"/>
<path d="M162 29L199.4 46.8936L240.175 54.4007L259.915 90.8604L288.491 120.901L283.03 162L288.491 203.099L259.915 233.14L240.175 269.599L199.4 277.106L162 295L124.6 277.106L83.8246 269.599L64.0847 233.14L35.5095 203.099L40.97 162L35.5095 120.901L64.0847 90.8604L83.8246 54.4007L124.6 46.8936L162 29Z" fill="#97D1C1" stroke="#67ABB4" stroke-width="10"/>
</svg>
