<svg width="324" height="324" viewBox="0 0 324 324" fill="none" xmlns="http://www.w3.org/2000/svg">
<path d="M147.5 19.9189C156.473 14.7386 167.527 14.7386 176.5 19.9189L277.796 78.4023C286.768 83.5827 292.296 93.1559 292.296 103.517V220.483C292.296 230.844 286.768 240.417 277.796 245.598L176.5 304.081C167.527 309.261 156.473 309.261 147.5 304.081L46.2041 245.598C37.2315 240.417 31.7041 230.844 31.7041 220.483V103.517C31.7041 93.1559 37.2315 83.5827 46.2041 78.4023L147.5 19.9189Z" fill="#EAA6A7" stroke="#D57487" stroke-width="20"/>
<path d="M152.5 61.4848C158.379 58.0908 165.621 58.0908 171.5 61.4848L244.299 103.515C250.177 106.909 253.799 113.182 253.799 119.97V204.03C253.799 210.818 250.177 217.091 244.299 220.485L171.5 262.515C165.621 265.909 158.379 265.909 152.5 262.515L79.7013 220.485C73.8227 217.091 70.2013 210.818 70.2013 204.03V119.97C70.2013 113.182 73.8227 106.909 79.7013 103.515L152.5 61.4848Z" fill="#EAA6A7" stroke="#D57487" stroke-width="20"/>
</svg>
